<mxfile host="app.diagrams.net" agent="Mozilla/5.0 (Windows NT 10.0; Win64; x64) AppleWebKit/537.36 (KHTML, like Gecko) Chrome/137.0.0.0 Safari/537.36" version="27.1.4">
  <diagram name="Page-1" id="c37626ed-c26b-45fb-9056-f9ebc6bb27b6">
    <mxGraphModel dx="1426" dy="795" grid="1" gridSize="10" guides="1" tooltips="1" connect="1" arrows="1" fold="1" page="1" pageScale="1" pageWidth="1100" pageHeight="850" background="none" math="0" shadow="0">
      <root>
        <mxCell id="0" />
        <mxCell id="1" parent="0" />
        <mxCell id="LmRdSaCdfSbrHxxwc8ei-55" value="" style="rounded=0;whiteSpace=wrap;html=1;" parent="1" vertex="1">
          <mxGeometry width="1100" height="850" as="geometry" />
        </mxCell>
        <mxCell id="LmRdSaCdfSbrHxxwc8ei-49" value="" style="rounded=0;whiteSpace=wrap;html=1;fillColor=#1ba1e2;fontColor=#ffffff;strokeColor=#006EAF;" parent="1" vertex="1">
          <mxGeometry x="500" y="349" width="297.16" height="302" as="geometry" />
        </mxCell>
        <mxCell id="LmRdSaCdfSbrHxxwc8ei-31" value="" style="rounded=0;whiteSpace=wrap;html=1;fillColor=#e3c800;fontColor=#000000;strokeColor=#B09500;" parent="1" vertex="1">
          <mxGeometry x="835.5" y="10" width="264.5" height="650" as="geometry" />
        </mxCell>
        <mxCell id="LmRdSaCdfSbrHxxwc8ei-29" value="" style="rounded=0;whiteSpace=wrap;html=1;fillColor=light-dark(#E51400,#FF0000);fontColor=#ffffff;strokeColor=#B20000;" parent="1" vertex="1">
          <mxGeometry x="580" y="10" width="235" height="230" as="geometry" />
        </mxCell>
        <mxCell id="LmRdSaCdfSbrHxxwc8ei-17" style="edgeStyle=orthogonalEdgeStyle;rounded=0;orthogonalLoop=1;jettySize=auto;html=1;" parent="1" source="LmRdSaCdfSbrHxxwc8ei-6" target="LmRdSaCdfSbrHxxwc8ei-14" edge="1">
          <mxGeometry relative="1" as="geometry">
            <Array as="points">
              <mxPoint x="954" y="425" />
            </Array>
          </mxGeometry>
        </mxCell>
        <mxCell id="LmRdSaCdfSbrHxxwc8ei-19" style="edgeStyle=orthogonalEdgeStyle;rounded=0;orthogonalLoop=1;jettySize=auto;html=1;" parent="1" source="LmRdSaCdfSbrHxxwc8ei-6" target="LmRdSaCdfSbrHxxwc8ei-13" edge="1">
          <mxGeometry relative="1" as="geometry" />
        </mxCell>
        <mxCell id="LmRdSaCdfSbrHxxwc8ei-20" style="edgeStyle=orthogonalEdgeStyle;rounded=0;orthogonalLoop=1;jettySize=auto;html=1;" parent="1" source="LmRdSaCdfSbrHxxwc8ei-6" target="LmRdSaCdfSbrHxxwc8ei-8" edge="1">
          <mxGeometry relative="1" as="geometry">
            <Array as="points">
              <mxPoint x="620" y="423" />
              <mxPoint x="620" y="423" />
            </Array>
          </mxGeometry>
        </mxCell>
        <mxCell id="LmRdSaCdfSbrHxxwc8ei-25" style="edgeStyle=orthogonalEdgeStyle;rounded=0;orthogonalLoop=1;jettySize=auto;html=1;" parent="1" source="LmRdSaCdfSbrHxxwc8ei-6" target="LmRdSaCdfSbrHxxwc8ei-9" edge="1">
          <mxGeometry relative="1" as="geometry" />
        </mxCell>
        <mxCell id="LmRdSaCdfSbrHxxwc8ei-28" style="edgeStyle=orthogonalEdgeStyle;rounded=0;orthogonalLoop=1;jettySize=auto;html=1;" parent="1" source="LmRdSaCdfSbrHxxwc8ei-6" target="LmRdSaCdfSbrHxxwc8ei-10" edge="1">
          <mxGeometry relative="1" as="geometry" />
        </mxCell>
        <mxCell id="Wm8xIRzeseAF589eBu8F-2" style="edgeStyle=orthogonalEdgeStyle;rounded=0;orthogonalLoop=1;jettySize=auto;html=1;" edge="1" parent="1" source="LmRdSaCdfSbrHxxwc8ei-6" target="Wm8xIRzeseAF589eBu8F-1">
          <mxGeometry relative="1" as="geometry" />
        </mxCell>
        <mxCell id="LmRdSaCdfSbrHxxwc8ei-6" value="" style="verticalLabelPosition=bottom;sketch=0;aspect=fixed;html=1;verticalAlign=top;strokeColor=none;align=center;outlineConnect=0;shape=mxgraph.citrix.firewall;" parent="1" vertex="1">
          <mxGeometry x="670" y="376" width="75" height="93" as="geometry" />
        </mxCell>
        <mxCell id="LmRdSaCdfSbrHxxwc8ei-21" style="edgeStyle=orthogonalEdgeStyle;rounded=0;orthogonalLoop=1;jettySize=auto;html=1;" parent="1" source="LmRdSaCdfSbrHxxwc8ei-8" target="LmRdSaCdfSbrHxxwc8ei-6" edge="1">
          <mxGeometry relative="1" as="geometry">
            <Array as="points">
              <mxPoint x="620" y="423" />
              <mxPoint x="620" y="423" />
            </Array>
          </mxGeometry>
        </mxCell>
        <mxCell id="LmRdSaCdfSbrHxxwc8ei-24" style="edgeStyle=orthogonalEdgeStyle;rounded=0;orthogonalLoop=1;jettySize=auto;html=1;" parent="1" source="LmRdSaCdfSbrHxxwc8ei-8" target="LmRdSaCdfSbrHxxwc8ei-22" edge="1">
          <mxGeometry relative="1" as="geometry" />
        </mxCell>
        <mxCell id="LmRdSaCdfSbrHxxwc8ei-8" value="" style="verticalLabelPosition=bottom;sketch=0;aspect=fixed;html=1;verticalAlign=top;strokeColor=none;align=center;outlineConnect=0;shape=mxgraph.citrix.router;" parent="1" vertex="1">
          <mxGeometry x="520" y="397.5" width="75.34" height="50" as="geometry" />
        </mxCell>
        <mxCell id="LmRdSaCdfSbrHxxwc8ei-9" value="" style="verticalLabelPosition=bottom;sketch=0;aspect=fixed;html=1;verticalAlign=top;strokeColor=none;align=center;outlineConnect=0;shape=mxgraph.citrix.desktop;" parent="1" vertex="1">
          <mxGeometry x="991.89" y="375" width="89" height="98" as="geometry" />
        </mxCell>
        <mxCell id="LmRdSaCdfSbrHxxwc8ei-10" value="" style="verticalLabelPosition=bottom;sketch=0;aspect=fixed;html=1;verticalAlign=top;strokeColor=none;align=center;outlineConnect=0;shape=mxgraph.citrix.desktop;" parent="1" vertex="1">
          <mxGeometry x="851" y="260" width="89" height="98" as="geometry" />
        </mxCell>
        <mxCell id="LmRdSaCdfSbrHxxwc8ei-27" style="edgeStyle=orthogonalEdgeStyle;rounded=0;orthogonalLoop=1;jettySize=auto;html=1;" parent="1" source="LmRdSaCdfSbrHxxwc8ei-11" target="LmRdSaCdfSbrHxxwc8ei-22" edge="1">
          <mxGeometry relative="1" as="geometry" />
        </mxCell>
        <mxCell id="LmRdSaCdfSbrHxxwc8ei-11" value="" style="verticalLabelPosition=bottom;sketch=0;aspect=fixed;html=1;verticalAlign=top;strokeColor=none;align=center;outlineConnect=0;shape=mxgraph.citrix.desktop;" parent="1" vertex="1">
          <mxGeometry x="50" y="373.5" width="89" height="98" as="geometry" />
        </mxCell>
        <mxCell id="LmRdSaCdfSbrHxxwc8ei-12" value="" style="verticalLabelPosition=bottom;sketch=0;aspect=fixed;html=1;verticalAlign=top;strokeColor=none;align=center;outlineConnect=0;shape=mxgraph.citrix.web_server;" parent="1" vertex="1">
          <mxGeometry x="940" y="150" width="76.5" height="90" as="geometry" />
        </mxCell>
        <mxCell id="LmRdSaCdfSbrHxxwc8ei-13" value="" style="verticalLabelPosition=bottom;sketch=0;aspect=fixed;html=1;verticalAlign=top;strokeColor=none;align=center;outlineConnect=0;shape=mxgraph.citrix.web_server;" parent="1" vertex="1">
          <mxGeometry x="668.5" y="90" width="76.5" height="90" as="geometry" />
        </mxCell>
        <mxCell id="LmRdSaCdfSbrHxxwc8ei-14" value="" style="verticalLabelPosition=bottom;sketch=0;aspect=fixed;html=1;verticalAlign=top;strokeColor=none;align=center;outlineConnect=0;shape=mxgraph.citrix.pbx_server;" parent="1" vertex="1">
          <mxGeometry x="924.6" y="490" width="67.29" height="88" as="geometry" />
        </mxCell>
        <mxCell id="LmRdSaCdfSbrHxxwc8ei-23" style="edgeStyle=orthogonalEdgeStyle;rounded=0;orthogonalLoop=1;jettySize=auto;html=1;" parent="1" source="LmRdSaCdfSbrHxxwc8ei-22" target="LmRdSaCdfSbrHxxwc8ei-8" edge="1">
          <mxGeometry relative="1" as="geometry" />
        </mxCell>
        <mxCell id="LmRdSaCdfSbrHxxwc8ei-26" style="edgeStyle=orthogonalEdgeStyle;rounded=0;orthogonalLoop=1;jettySize=auto;html=1;" parent="1" source="LmRdSaCdfSbrHxxwc8ei-22" target="LmRdSaCdfSbrHxxwc8ei-11" edge="1">
          <mxGeometry relative="1" as="geometry" />
        </mxCell>
        <mxCell id="LmRdSaCdfSbrHxxwc8ei-22" value="" style="verticalLabelPosition=bottom;sketch=0;aspect=fixed;html=1;verticalAlign=top;strokeColor=none;align=center;outlineConnect=0;shape=mxgraph.citrix.web_server;" parent="1" vertex="1">
          <mxGeometry x="360" y="377.5" width="76.5" height="90" as="geometry" />
        </mxCell>
        <mxCell id="LmRdSaCdfSbrHxxwc8ei-32" value="DMZ" style="text;html=1;align=center;verticalAlign=middle;whiteSpace=wrap;rounded=0;fontSize=29;" parent="1" vertex="1">
          <mxGeometry x="653.75" y="20" width="87.5" height="40" as="geometry" />
        </mxCell>
        <mxCell id="LmRdSaCdfSbrHxxwc8ei-41" value="PC ext" style="text;html=1;align=center;verticalAlign=middle;whiteSpace=wrap;rounded=0;fontSize=29;" parent="1" vertex="1">
          <mxGeometry x="40" y="490" width="87.5" height="40" as="geometry" />
        </mxCell>
        <mxCell id="LmRdSaCdfSbrHxxwc8ei-42" value="VDS" style="text;html=1;align=center;verticalAlign=middle;whiteSpace=wrap;rounded=0;fontSize=29;" parent="1" vertex="1">
          <mxGeometry x="354.5" y="480" width="87.5" height="40" as="geometry" />
        </mxCell>
        <mxCell id="LmRdSaCdfSbrHxxwc8ei-43" value="PFsense" style="text;html=1;align=center;verticalAlign=middle;whiteSpace=wrap;rounded=0;fontSize=29;" parent="1" vertex="1">
          <mxGeometry x="580.0000000000001" y="349" width="87.5" height="40" as="geometry" />
        </mxCell>
        <mxCell id="LmRdSaCdfSbrHxxwc8ei-44" value="SIEM/ EDR" style="text;html=1;align=center;verticalAlign=middle;whiteSpace=wrap;rounded=0;fontSize=29;" parent="1" vertex="1">
          <mxGeometry x="1000" y="538" width="87.5" height="40" as="geometry" />
        </mxCell>
        <mxCell id="LmRdSaCdfSbrHxxwc8ei-45" value="DSI" style="text;html=1;align=center;verticalAlign=middle;whiteSpace=wrap;rounded=0;fontSize=29;" parent="1" vertex="1">
          <mxGeometry x="993.39" y="333.5" width="87.5" height="40" as="geometry" />
        </mxCell>
        <mxCell id="LmRdSaCdfSbrHxxwc8ei-47" value="Webmail" style="text;html=1;align=center;verticalAlign=middle;whiteSpace=wrap;rounded=0;fontSize=29;" parent="1" vertex="1">
          <mxGeometry x="934.5" y="90" width="87.5" height="40" as="geometry" />
        </mxCell>
        <mxCell id="LmRdSaCdfSbrHxxwc8ei-48" value="" style="edgeStyle=orthogonalEdgeStyle;rounded=0;orthogonalLoop=1;jettySize=auto;html=1;startArrow=classic;startFill=1;" parent="1" source="LmRdSaCdfSbrHxxwc8ei-6" target="LmRdSaCdfSbrHxxwc8ei-12" edge="1">
          <mxGeometry relative="1" as="geometry">
            <mxPoint x="745" y="423" as="sourcePoint" />
            <mxPoint x="978" y="240" as="targetPoint" />
          </mxGeometry>
        </mxCell>
        <mxCell id="LmRdSaCdfSbrHxxwc8ei-46" value="User" style="text;html=1;align=center;verticalAlign=middle;whiteSpace=wrap;rounded=0;fontSize=29;" parent="1" vertex="1">
          <mxGeometry x="837.1" y="210" width="87.5" height="40" as="geometry" />
        </mxCell>
        <mxCell id="LmRdSaCdfSbrHxxwc8ei-50" value="Extranet" style="text;html=1;align=center;verticalAlign=middle;whiteSpace=wrap;rounded=0;fontSize=29;" parent="1" vertex="1">
          <mxGeometry x="934.5" y="20" width="87.5" height="40" as="geometry" />
        </mxCell>
        <mxCell id="LmRdSaCdfSbrHxxwc8ei-52" style="edgeStyle=orthogonalEdgeStyle;rounded=0;orthogonalLoop=1;jettySize=auto;html=1;startArrow=classic;startFill=1;" parent="1" source="LmRdSaCdfSbrHxxwc8ei-51" target="LmRdSaCdfSbrHxxwc8ei-6" edge="1">
          <mxGeometry relative="1" as="geometry">
            <Array as="points">
              <mxPoint x="708" y="530" />
            </Array>
          </mxGeometry>
        </mxCell>
        <mxCell id="LmRdSaCdfSbrHxxwc8ei-53" style="edgeStyle=orthogonalEdgeStyle;rounded=0;orthogonalLoop=1;jettySize=auto;html=1;startArrow=classic;startFill=1;" parent="1" source="LmRdSaCdfSbrHxxwc8ei-51" target="LmRdSaCdfSbrHxxwc8ei-8" edge="1">
          <mxGeometry relative="1" as="geometry" />
        </mxCell>
        <mxCell id="LmRdSaCdfSbrHxxwc8ei-51" value="" style="verticalLabelPosition=bottom;sketch=0;aspect=fixed;html=1;verticalAlign=top;strokeColor=none;align=center;outlineConnect=0;shape=mxgraph.citrix.pbx_server;" parent="1" vertex="1">
          <mxGeometry x="609" y="490" width="65" height="85" as="geometry" />
        </mxCell>
        <mxCell id="LmRdSaCdfSbrHxxwc8ei-54" value="VPN" style="text;html=1;align=center;verticalAlign=middle;whiteSpace=wrap;rounded=0;fontSize=29;" parent="1" vertex="1">
          <mxGeometry x="595.34" y="590" width="87.5" height="40" as="geometry" />
        </mxCell>
        <mxCell id="Wm8xIRzeseAF589eBu8F-1" value="" style="verticalLabelPosition=bottom;sketch=0;aspect=fixed;html=1;verticalAlign=top;strokeColor=none;align=center;outlineConnect=0;shape=mxgraph.citrix.pbx_server;" vertex="1" parent="1">
          <mxGeometry x="847.2" y="490" width="67.29" height="88" as="geometry" />
        </mxCell>
        <mxCell id="Wm8xIRzeseAF589eBu8F-3" value="Backup mail" style="text;html=1;align=center;verticalAlign=middle;whiteSpace=wrap;rounded=0;fontSize=29;" vertex="1" parent="1">
          <mxGeometry x="847" y="600" width="87.5" height="40" as="geometry" />
        </mxCell>
      </root>
    </mxGraphModel>
  </diagram>
</mxfile>
